# xmcd CD database file
#
# Track frame offsets:
#	150
#	28355
#	55959
#	83346
#	111081
#	139836
#	167475
#	196085
#	224385
#	253111
#	280793
#	309338
#
# Disc length: 4509 seconds
#
# Revision: 0
# Processed by: cddbd v1.5.2PL0 Copyright (c) Steve Scherf et al.
# Submitted via: CDex 1.51
#
DISCID=a3119b0c
DTITLE=Paul Lawler - True reiki
DYEAR=2007
DGENRE=New Age
TTITLE0=Just for Today
TTITLE1=Attunement
TTITLE2=Healing the Self
TTITLE3=Reiki Share
TTITLE4=Cho Ku Rei
TTITLE5=Sei He Ki
TTITLE6=Hon Sha Ze Sho Nen
TTITLE7=Hands on Healing
TTITLE8=Projectng Symbols
TTITLE9=Dai Ko Myo
TTITLE10=Student and Teacher
TTITLE11=Just for Today
EXTD=YEAR: 2007
EXTT0=
EXTT1=
EXTT2=
EXTT3=
EXTT4=
EXTT5=
EXTT6=
EXTT7=
EXTT8=
EXTT9=
EXTT10=
EXTT11=
PLAYORDER=
